<svg xmlns="http://www.w3.org/2000/svg"  viewBox="0 0 98 98" width="64px" height="64px"><path d="M 38.900391 6 C 36.500391 6 35 8.1003906 35 10.400391 L 35 11.400391 C 34 11.700391 33 12.400781 33 13.300781 L 33 16.300781 C 33 17.500781 34 18.600391 35 19.400391 L 35 33.599609 C 35 35.899609 36.500391 38 38.900391 38 L 59.099609 38 C 61.499609 38 63 35.899609 63 33.599609 L 63 19.300781 A 4.1 4.1 0 0 0 65 16.300781 L 65 13.300781 C 65 12.400781 64 11.700391 63 11.400391 L 63 10.400391 C 63 8.1003906 61.499609 6 59.099609 6 L 38.900391 6 z M 38.900391 10 L 59.099609 10 C 59.299609 10 59 10.300391 59 10.400391 L 59 11 L 39 11 L 39 10.400391 C 39 10.300391 38.800391 10 38.900391 10 z M 42 15 L 44 15 L 44 16.800781 A 1 1 0 0 1 42 16.800781 L 42 15 z M 48 15 L 50 15 L 50 16.800781 A 1 1 0 0 1 48 16.800781 L 48 15 z M 54 15 L 56 15 L 56 16.699219 A 1 1 0 0 1 54 16.699219 L 54 15 z M 37.400391 15.300781 L 38 15.300781 L 37.900391 16.300781 A 0.3 0.3 0 0 1 37.599609 16.599609 L 37.5 16.599609 A 0.1 0.1 0 0 0 37.400391 16.5 L 37.400391 15.300781 z M 60.099609 15.300781 L 60.699219 15.300781 L 60.699219 16.300781 A 0.3 0.3 0 0 1 60.400391 16.599609 L 60.099609 16.400391 L 60.099609 15.300781 z M 39.5 20.300781 A 5 5 0 0 0 43.099609 21.900391 A 4.4 4.4 0 0 0 46 20.800781 A 4.8 4.8 0 0 0 49 21.900391 A 4.9 4.9 0 0 0 52.099609 20.800781 A 4.6 4.6 0 0 0 55.099609 21.900391 A 4.4 4.4 0 0 0 58.5 20.300781 L 59 20.5 L 59 33.599609 C 59 33.699609 59.299609 34 59.099609 34 L 57 34 L 57 26.300781 A 2.3 2.3 0 0 0 55 24 L 43.099609 24 A 2.4 2.4 0 0 0 41 26.300781 L 41 34 L 38.900391 34 C 38.800391 34 39 33.699609 39 33.599609 L 39 20.5 C 39 20.4 39.3 20.400781 39.5 20.300781 z M 67.767578 24.439453 A 2.0112185 2.0112185 0 0 0 66.599609 28.099609 A 30.4 30.4 0 0 1 79.5 53 A 2 2 0 0 0 83.5 53 A 34.7 34.7 0 0 0 68.900391 24.800781 A 2.0112185 2.0112185 0 0 0 67.767578 24.439453 z M 28.443359 25.767578 A 2 2 0 0 0 27.400391 26.099609 A 34.4 34.4 0 0 0 14.5 53 A 2 2 0 0 0 16.5 55 A 2 2 0 0 0 18.5 53 A 30.5 30.5 0 0 1 29.900391 29.199219 A 2 2 0 0 0 28.443359 25.767578 z M 45 28 L 53 28 L 53 34 L 45 34 L 45 28 z M 8.9003906 60 C 6.5003906 60 5 62.100391 5 64.400391 L 5 65.400391 C 4 65.700391 3 66.400781 3 67.300781 L 3 70.300781 C 3 71.500781 4 72.600391 5 73.400391 L 5 87.599609 C 5 89.899609 6.5003906 92 8.9003906 92 L 29.099609 92 C 31.499609 92 33 89.899609 33 87.599609 L 33 73.300781 A 4.1 4.1 0 0 0 35 70.300781 L 35 67.300781 C 35 66.400781 34 65.700391 33 65.400391 L 33 64.400391 C 33 62.100391 31.499609 60 29.099609 60 L 8.9003906 60 z M 68.900391 60 C 66.500391 60 65 62.100391 65 64.400391 L 65 65.400391 C 64 65.700391 63 66.400781 63 67.300781 L 63 70.300781 C 63 71.500781 64 72.600391 65 73.400391 L 65 87.599609 C 65 89.899609 66.500391 92 68.900391 92 L 89.099609 92 C 91.499609 92 93 89.899609 93 87.599609 L 93 73.300781 A 4.1 4.1 0 0 0 95 70.300781 L 95 67.300781 C 95 66.400781 94 65.700391 93 65.400391 L 93 64.400391 C 93 62.100391 91.499609 60 89.099609 60 L 68.900391 60 z M 8.9003906 64 L 29.099609 64 C 29.299609 64 29 64.300391 29 64.400391 L 29 65 L 9 65 L 9 64.400391 C 9 64.300391 8.8003906 64 8.9003906 64 z M 68.900391 64 L 89.099609 64 C 89.299609 64 89 64.300391 89 64.400391 L 89 65 L 69 65 L 69 64.400391 C 69 64.300391 68.800391 64 68.900391 64 z M 12 69 L 14 69 L 14 70.800781 A 1 1 0 0 1 12 70.800781 L 12 69 z M 18 69 L 20 69 L 20 70.800781 A 1 1 0 0 1 18 70.800781 L 18 69 z M 24 69 L 26 69 L 26 70.699219 A 1 1 0 0 1 24 70.699219 L 24 69 z M 72 69 L 74 69 L 74 70.800781 A 1 1 0 0 1 72 70.800781 L 72 69 z M 78 69 L 80 69 L 80 70.800781 A 1 1 0 0 1 78 70.800781 L 78 69 z M 84 69 L 86 69 L 86 70.699219 A 1 1 0 0 1 84 70.699219 L 84 69 z M 30.099609 69.300781 L 30.699219 69.300781 L 30.699219 70.300781 A 0.3 0.3 0 0 1 30.400391 70.599609 L 30.099609 70.400391 L 30.099609 69.300781 z M 90.099609 69.300781 L 90.699219 69.300781 L 90.699219 70.300781 A 0.3 0.3 0 0 1 90.400391 70.599609 L 90.099609 70.400391 L 90.099609 69.300781 z M 7.3007812 69.400391 L 7.9003906 69.400391 L 7.9003906 70.300781 A 0.3 0.3 0 0 1 7.5996094 70.599609 L 7.4003906 70.599609 A 0.3 0.3 0 0 1 7.3007812 70.400391 L 7.3007812 69.400391 z M 67.300781 69.400391 L 67.900391 69.400391 L 67.900391 70.300781 A 0.3 0.3 0 0 1 67.599609 70.599609 L 67.400391 70.599609 A 0.3 0.3 0 0 1 67.300781 70.400391 L 67.300781 69.400391 z M 9.5 74.300781 A 5 5 0 0 0 13.099609 75.900391 A 4.4 4.4 0 0 0 16 74.800781 A 4.8 4.8 0 0 0 19 75.900391 A 4.9 4.9 0 0 0 22.099609 74.800781 A 4.6 4.6 0 0 0 25.099609 75.900391 A 4.4 4.4 0 0 0 28.5 74.300781 L 29 74.5 L 29 87.599609 C 29 87.699609 29.299609 88 29.099609 88 L 27 88 L 27 80.300781 A 2.3 2.3 0 0 0 25 78 L 13.099609 78 A 2.4 2.4 0 0 0 11 80.300781 L 11 88 L 8.9003906 88 C 8.8003906 88 9 87.699609 9 87.599609 L 9 74.5 L 9.5 74.300781 z M 69.5 74.300781 A 5 5 0 0 0 73.099609 75.900391 A 4.4 4.4 0 0 0 76 74.800781 A 4.8 4.8 0 0 0 79 75.900391 A 4.9 4.9 0 0 0 82.099609 74.800781 A 4.6 4.6 0 0 0 85.099609 75.900391 A 4.4 4.4 0 0 0 88.5 74.300781 L 89 74.5 L 89 87.599609 C 89 87.699609 89.299609 88 89.099609 88 L 87 88 L 87 80.300781 A 2.3 2.3 0 0 0 85 78 L 73.099609 78 A 2.4 2.4 0 0 0 71 80.300781 L 71 88 L 68.900391 88 C 68.800391 88 69 87.699609 69 87.599609 L 69 74.5 L 69.5 74.300781 z M 59.474609 81.769531 A 2 2 0 0 0 58.699219 81.900391 A 30.4 30.4 0 0 1 39.400391 81.900391 A 2 2 0 0 0 36.900391 83.199219 A 1.9 1.9 0 0 0 38.099609 85.699219 A 34.2 34.2 0 0 0 60 85.699219 A 2.1 2.1 0 0 0 61.300781 83.099609 A 2 2 0 0 0 59.474609 81.769531 z M 15 82 L 23 82 L 23 88 L 15 88 L 15 82 z M 75 82 L 83 82 L 83 88 L 75 88 L 75 82 z"/></svg>