<svg xmlns="http://www.w3.org/2000/svg" xmlns:xlink="http://www.w3.org/1999/xlink" width="922" zoomAndPan="magnify" viewBox="0 0 691.5 272.999983" height="364" preserveAspectRatio="xMidYMid meet" version="1.0"><path fill="#e84553" d="M 197.164062 26.785156 C 198.832031 26.796875 200.496094 26.785156 202.164062 26.773438 C 212.183594 26.757812 222.132812 27.996094 231.628906 31.339844 C 232.179688 31.53125 232.730469 31.71875 233.300781 31.914062 C 258.042969 40.734375 279.40625 59.003906 290.859375 82.738281 C 297.46875 97.03125 300.859375 111.34375 300.8125 127.132812 C 300.8125 127.917969 300.8125 127.917969 300.8125 128.722656 C 300.78125 137.582031 300.042969 145.960938 297.535156 154.488281 C 297.292969 155.308594 297.292969 155.308594 297.046875 156.148438 C 292.210938 172.066406 283.820312 185.585938 272.804688 197.957031 C 272.355469 198.457031 271.910156 198.957031 271.453125 199.472656 C 255.21875 216.632812 229.984375 227.480469 206.527344 228.1875 C 204.523438 228.207031 202.527344 228.222656 200.527344 228.214844 C 199.738281 228.214844 199.738281 228.214844 198.9375 228.214844 C 170.191406 228.09375 147.207031 216.703125 126.964844 196.796875 C 119.398438 188.90625 113.910156 179.632812 109.140625 169.851562 C 108.84375 169.257812 108.550781 168.664062 108.25 168.050781 C 102.949219 156.761719 100.835938 144.441406 98.570312 132.273438 C 94.585938 111.023438 88.070312 92.484375 69.699219 79.542969 C 59.335938 72.503906 47.234375 68.445312 34.851562 66.78125 C 30.253906 66.140625 26.695312 64.8125 23.75 61.132812 C 23.378906 60.683594 23.011719 60.234375 22.632812 59.769531 C 19.84375 56 20.570312 51.03125 20.984375 46.566406 C 22.179688 42.585938 23.808594 40.199219 27.433594 38.164062 C 30.871094 36.5625 33.953125 36.332031 37.707031 36.402344 C 38.355469 36.40625 39.003906 36.414062 39.671875 36.421875 C 46.761719 36.644531 53.257812 38.355469 59.957031 40.570312 C 60.476562 40.738281 61 40.90625 61.535156 41.078125 C 73.710938 45.082031 84.652344 51.03125 94.433594 59.304688 C 95.15625 59.917969 95.882812 60.527344 96.628906 61.15625 C 101.457031 65.382812 105.542969 69.9375 109.421875 75.042969 C 109.726562 75.4375 110.03125 75.832031 110.34375 76.238281 C 123.21875 93 127.710938 110.550781 130.40625 131.253906 C 133.074219 151.238281 139.652344 169.179688 156.117188 182.070312 C 158.003906 183.429688 159.925781 184.707031 161.882812 185.964844 C 162.542969 186.40625 163.203125 186.84375 163.886719 187.300781 C 179.636719 197.21875 198.597656 199.328125 216.5625 195.328125 C 233.839844 191.128906 249.203125 180.640625 258.835938 165.632812 C 269.195312 148.515625 272.144531 129.730469 267.554688 110.269531 C 263.160156 93.003906 252.808594 77.800781 237.578125 68.300781 C 229.523438 63.695312 221.183594 60.410156 212.097656 58.554688 C 211.566406 58.445312 211.039062 58.332031 210.492188 58.214844 C 209.015625 57.972656 207.59375 57.871094 206.101562 57.808594 C 205.277344 57.757812 204.453125 57.710938 203.605469 57.664062 C 184.160156 57.0625 165.855469 63.683594 151.640625 77.03125 C 148.6875 80.007812 145.886719 83.113281 143.148438 86.285156 C 140.898438 85.535156 140.898438 85.535156 139.957031 83.941406 C 139.652344 83.25 139.347656 82.558594 139.035156 81.84375 C 138.691406 81.082031 138.347656 80.316406 137.996094 79.53125 C 137.460938 78.308594 137.460938 78.308594 136.917969 77.058594 C 136.183594 75.410156 135.449219 73.761719 134.710938 72.113281 C 134.359375 71.324219 134.007812 70.53125 133.644531 69.714844 C 132.15625 66.460938 130.503906 63.316406 128.777344 60.183594 C 128.035156 58.238281 128.097656 57.460938 128.90625 55.558594 C 140.320312 39.652344 164.800781 31.277344 182.988281 27.519531 C 187.710938 26.796875 192.394531 26.746094 197.164062 26.785156 Z M 197.164062 26.785156 " fill-opacity="1" fill-rule="nonzero"/><path fill="#ffffff" d="M 220.996094 99.265625 C 228.351562 105.082031 232.886719 112.214844 234.582031 121.511719 C 235.628906 131.253906 234.253906 140.289062 228.398438 148.371094 C 222.460938 155.6875 216.253906 160.265625 206.851562 161.980469 C 199.066406 162.75 191.421875 162.628906 184.367188 158.984375 C 183.730469 158.683594 183.097656 158.382812 182.441406 158.074219 C 174.015625 153.632812 169.324219 146.09375 166.378906 137.25 C 163.863281 128.296875 165.253906 118.125 169.554688 110.019531 C 170.4375 108.550781 171.375 107.160156 172.375 105.773438 C 172.792969 105.136719 173.210938 104.503906 173.640625 103.851562 C 186.003906 90.816406 206.46875 88.839844 220.996094 99.265625 Z M 220.996094 99.265625 " fill-opacity="1" fill-rule="nonzero"/><path fill="#e84553" d="M 397.820312 48.953125 C 406.003906 54.585938 411.742188 63.085938 414.027344 72.796875 C 415.859375 85.230469 413.824219 96.652344 406.371094 106.847656 C 400.664062 113.769531 392.695312 118.789062 383.722656 120.011719 C 374.667969 120.753906 365.019531 121.238281 356.742188 117.015625 C 356.097656 116.695312 355.449219 116.378906 354.785156 116.050781 C 345.53125 111.011719 339.4375 103.25 336.347656 93.28125 C 333.929688 83.054688 334.464844 71.683594 339.503906 62.304688 C 341.09375 59.902344 342.855469 57.726562 344.75 55.558594 C 345.125 55.097656 345.5 54.632812 345.886719 54.15625 C 358.257812 40.128906 382.652344 40.089844 397.820312 48.953125 Z M 358.664062 65.160156 C 354.300781 71.703125 352.839844 79.179688 354.089844 86.933594 C 355.515625 93.535156 357.796875 99.011719 363.628906 102.773438 C 368.867188 105.75 374.847656 105.6875 380.726562 105.023438 C 385.894531 103.554688 389.878906 100.597656 392.714844 96.027344 C 396.359375 88.367188 396.96875 79.914062 394.542969 71.765625 C 392.519531 66.464844 389.542969 62.441406 384.519531 59.679688 C 375.683594 56.304688 364.777344 57.621094 358.664062 65.160156 Z M 358.664062 65.160156 " fill-opacity="1" fill-rule="nonzero"/><path fill="#e84553" d="M 492.394531 42.816406 C 498.082031 42.816406 503.769531 42.816406 509.632812 42.816406 C 509.632812 68.292969 509.632812 93.765625 509.632812 120.011719 C 498.390625 120.011719 498.390625 120.011719 494.640625 117.761719 C 494.035156 115.75 494.035156 115.75 493.894531 114.015625 C 493.449219 114.324219 493.007812 114.628906 492.550781 114.945312 C 491.957031 115.351562 491.363281 115.753906 490.753906 116.171875 C 490.171875 116.570312 489.589844 116.972656 488.988281 117.382812 C 483.632812 120.667969 478.25 120.519531 472.160156 120.011719 C 467.167969 118.785156 463.679688 115.226562 460.917969 111.019531 C 456.53125 101.773438 455.886719 91.53125 458.640625 81.707031 C 461.117188 74.816406 465.027344 69.640625 471.578125 66.324219 C 474.46875 65.136719 477.257812 64.941406 480.355469 64.972656 C 481.101562 64.949219 481.101562 64.949219 481.863281 64.929688 C 486.421875 64.933594 487.863281 66.035156 492.394531 68.300781 C 492.394531 59.890625 492.394531 51.480469 492.394531 42.816406 Z M 476.65625 81.789062 C 473.433594 87.773438 473.980469 94.808594 475.429688 101.21875 C 476.339844 104.203125 476.996094 105.5 479.652344 107.269531 C 481.355469 107.59375 481.355469 107.59375 483.214844 107.597656 C 483.828125 107.628906 484.441406 107.660156 485.074219 107.691406 C 488.265625 107.046875 490.476562 106.265625 492.394531 103.523438 C 493.050781 100.269531 493.085938 97.113281 492.996094 93.800781 C 492.957031 92.234375 492.964844 90.675781 492.980469 89.113281 C 493.230469 83.664062 493.230469 83.664062 490.601562 79.25 C 485.480469 76.085938 480.449219 77.523438 476.65625 81.789062 Z M 476.65625 81.789062 " fill-opacity="1" fill-rule="nonzero"/><path fill="#e84553" d="M 595.914062 169.335938 C 596.925781 169.347656 597.9375 169.355469 598.953125 169.367188 C 601.40625 169.394531 603.859375 169.429688 606.3125 169.476562 C 606.347656 175.40625 606.371094 181.335938 606.390625 187.261719 C 606.398438 190.015625 606.40625 192.769531 606.425781 195.523438 C 606.441406 198.1875 606.449219 200.851562 606.453125 203.511719 C 606.457031 205.011719 606.46875 206.511719 606.480469 208.007812 C 606.480469 215.703125 606.382812 223.371094 601.066406 229.433594 C 595.648438 234.082031 589.214844 234.988281 582.277344 234.882812 C 578.414062 234.527344 574.8125 233.484375 571.085938 232.429688 C 570.839844 228.472656 570.59375 224.515625 570.335938 220.4375 C 571.203125 220.5625 572.070312 220.6875 572.960938 220.8125 C 576.410156 221.1875 579.84375 221.324219 583.3125 221.375 C 583.832031 221.390625 584.351562 221.40625 584.886719 221.425781 C 587.230469 221.441406 588.851562 221.308594 590.933594 220.195312 C 592.324219 218.945312 592.324219 218.945312 592.070312 216.691406 C 591.285156 216.617188 590.496094 216.546875 589.6875 216.46875 C 580.714844 215.550781 573.597656 213.96875 567.339844 206.949219 C 563.003906 201.351562 562.75 194.992188 563.371094 188.183594 C 564.253906 182.339844 567.769531 177.949219 572.394531 174.496094 C 579.78125 169.464844 587.175781 169.167969 595.914062 169.335938 Z M 578.722656 185.496094 C 576.195312 188.527344 575.566406 190.179688 575.628906 194.160156 C 576.179688 197.507812 577.589844 199.375 580.082031 201.703125 C 584.921875 204.609375 587.308594 203.953125 593.570312 203.953125 C 593.570312 196.53125 593.570312 189.113281 593.570312 181.46875 C 585.242188 181.363281 585.242188 181.363281 578.722656 185.496094 Z M 578.722656 185.496094 " fill-opacity="1" fill-rule="nonzero"/><path fill="#e84553" d="M 594.386719 67.886719 C 599.648438 72.160156 602.390625 76.96875 603.171875 83.792969 C 603.4375 87.082031 603.40625 90.367188 603.386719 93.664062 C 603.386719 94.421875 603.386719 95.175781 603.382812 95.957031 C 603.378906 98.355469 603.371094 100.75 603.359375 103.148438 C 603.355469 104.78125 603.351562 106.417969 603.351562 108.050781 C 603.34375 112.039062 603.328125 116.023438 603.3125 120.011719 C 601.996094 120.027344 600.675781 120.035156 599.359375 120.042969 C 598.257812 120.054688 598.257812 120.054688 597.132812 120.0625 C 594.636719 120 592.785156 119.703125 590.574219 118.511719 C 589.710938 116.578125 589.710938 116.578125 589.074219 114.765625 C 588.472656 115.144531 587.871094 115.523438 587.253906 115.914062 C 581.925781 118.957031 577.652344 120.515625 571.460938 120.480469 C 570.898438 120.480469 570.332031 120.476562 569.753906 120.476562 C 565.570312 120.324219 562.355469 119.390625 559.199219 116.476562 C 558.839844 116.035156 558.480469 115.59375 558.113281 115.140625 C 557.742188 114.699219 557.375 114.257812 556.996094 113.804688 C 554.578125 110.339844 554.972656 106.054688 555.347656 102.023438 C 556.492188 97.5 559.097656 94.878906 563.042969 92.523438 C 570.871094 88.742188 578.3125 88.105469 586.824219 88.535156 C 586.488281 87.191406 586.144531 85.847656 585.796875 84.507812 C 585.605469 83.757812 585.414062 83.011719 585.214844 82.242188 C 584.710938 80.195312 584.710938 80.195312 583.078125 78.792969 C 578.007812 78.046875 574.105469 78.859375 569.585938 81.105469 C 567.414062 82.097656 565.929688 82.265625 563.59375 81.789062 C 560.957031 79.644531 559.144531 77.3125 557.597656 74.296875 C 557.597656 73.800781 557.597656 73.304688 557.597656 72.796875 C 567.117188 65.285156 583.3125 60.953125 594.386719 67.886719 Z M 571.835938 101.929688 C 570.847656 104.03125 571.09375 105.101562 571.835938 107.269531 C 573.664062 109.097656 574.277344 109.03125 576.800781 109.097656 C 580.320312 109.003906 582.855469 108.320312 585.753906 106.304688 C 587.15625 104.628906 587.195312 103.578125 587.199219 101.414062 C 587.105469 100.367188 586.988281 99.320312 586.824219 98.277344 C 581.066406 97.996094 576.273438 97.769531 571.835938 101.929688 Z M 571.835938 101.929688 " fill-opacity="1" fill-rule="nonzero"/><path fill="#e84553" d="M 623.15625 50.164062 C 624.191406 50.175781 625.230469 50.195312 626.265625 50.21875 C 629 50.265625 629 50.265625 631.792969 50.3125 C 631.792969 55.507812 631.792969 60.699219 631.792969 66.050781 C 635.996094 66.050781 640.203125 66.050781 644.535156 66.050781 C 644.535156 70.007812 644.535156 73.964844 644.535156 78.042969 C 640.328125 78.042969 636.125 78.042969 631.792969 78.042969 C 631.882812 81.976562 631.976562 85.914062 632.070312 89.847656 C 632.105469 91.1875 632.136719 92.527344 632.164062 93.867188 C 632.210938 95.789062 632.257812 97.710938 632.304688 99.632812 C 632.316406 100.234375 632.332031 100.839844 632.34375 101.460938 C 632.160156 104.21875 632.160156 104.21875 633.292969 106.523438 C 633.796875 106.457031 634.300781 106.394531 634.820312 106.332031 C 637.003906 106.070312 638.636719 106.027344 640.785156 106.523438 C 643.132812 108.691406 644.796875 111.070312 646.03125 114.015625 C 645.976562 115.65625 645.976562 115.65625 645.285156 117.015625 C 639.679688 121.214844 631.648438 120.640625 625.046875 120.011719 C 621.121094 119.101562 619.085938 117.375 616.851562 114.0625 C 614.324219 109.753906 614.453125 105.363281 614.484375 100.511719 C 614.484375 99.867188 614.484375 99.222656 614.484375 98.5625 C 614.488281 96.515625 614.5 94.46875 614.507812 92.421875 C 614.511719 91.03125 614.515625 89.640625 614.519531 88.25 C 614.527344 84.847656 614.539062 81.445312 614.554688 78.042969 C 613.496094 78.070312 613.496094 78.070312 612.417969 78.097656 C 610.058594 78.042969 610.058594 78.042969 608.289062 77.183594 C 606.59375 75.265625 606.753906 74.054688 606.875 71.53125 C 606.902344 70.785156 606.929688 70.042969 606.957031 69.273438 C 606.992188 68.707031 607.023438 68.136719 607.0625 67.550781 C 610.191406 66.355469 612.707031 65.890625 616.054688 66.050781 C 616.132812 65.230469 616.210938 64.414062 616.289062 63.566406 C 617.929688 50.460938 617.929688 50.460938 623.15625 50.164062 Z M 623.15625 50.164062 " fill-opacity="1" fill-rule="nonzero"/><path fill="#e84553" d="M 394.964844 169.476562 C 398.921875 169.476562 402.878906 169.476562 406.957031 169.476562 C 406.957031 185.058594 406.957031 200.636719 406.957031 216.691406 C 401.144531 216.722656 395.332031 216.753906 389.34375 216.785156 C 387.535156 216.800781 385.726562 216.8125 383.863281 216.828125 C 357.457031 216.945312 357.457031 216.945312 349.207031 210.183594 C 344.042969 205.03125 343.144531 198.203125 343.03125 191.152344 C 343.046875 189.359375 343.074219 187.566406 343.109375 185.777344 C 343.121094 184.851562 343.132812 183.925781 343.140625 182.976562 C 343.167969 180.722656 343.207031 178.472656 343.25 176.222656 C 347.457031 176.222656 351.660156 176.222656 355.992188 176.222656 C 356.019531 177.511719 356.046875 178.804688 356.078125 180.136719 C 356.125 181.84375 356.175781 183.554688 356.226562 185.261719 C 356.242188 186.109375 356.261719 186.960938 356.277344 187.835938 C 356.425781 192.476562 356.664062 196.136719 358.992188 200.203125 C 363.175781 203.507812 367.984375 203.332031 373.082031 203.4375 C 373.636719 203.453125 374.191406 203.46875 374.765625 203.480469 C 376.832031 203.53125 378.894531 203.578125 380.957031 203.625 C 385.582031 203.730469 390.203125 203.839844 394.964844 203.953125 C 394.964844 192.574219 394.964844 181.199219 394.964844 169.476562 Z M 394.964844 169.476562 " fill-opacity="1" fill-rule="nonzero"/><path fill="#e84553" d="M 548.367188 65.113281 C 549.222656 65.125 550.074219 65.136719 550.953125 65.148438 C 553.101562 65.300781 553.101562 65.300781 554.597656 66.050781 C 554.65625 69.539062 554.65625 73.011719 554.410156 76.496094 C 554.375 77.042969 554.34375 77.59375 554.304688 78.15625 C 553.847656 79.542969 553.847656 79.542969 552.59375 80.464844 C 550.476562 81.164062 548.625 81.222656 546.402344 81.273438 C 542.535156 81.492188 542.535156 81.492188 539.46875 83.617188 C 537.738281 86.066406 537.265625 87.289062 537.207031 90.234375 C 537.191406 90.894531 537.175781 91.554688 537.164062 92.234375 C 537.144531 93.304688 537.144531 93.304688 537.125 94.394531 C 537.109375 95.125 537.09375 95.855469 537.078125 96.605469 C 537.027344 98.945312 536.984375 101.28125 536.941406 103.617188 C 536.90625 105.199219 536.875 106.78125 536.839844 108.363281 C 536.761719 112.246094 536.6875 116.128906 536.613281 120.011719 C 531.171875 120.011719 525.730469 120.011719 520.125 120.011719 C 520.125 102.203125 520.125 84.398438 520.125 66.050781 C 524.574219 66.050781 529.027344 66.050781 533.613281 66.050781 C 534.355469 68.03125 535.097656 70.007812 535.863281 72.046875 C 536.402344 71.351562 536.945312 70.65625 537.5 69.9375 C 540.519531 66.058594 543.511719 65.003906 548.367188 65.113281 Z M 548.367188 65.113281 " fill-opacity="1" fill-rule="nonzero"/><path fill="#e84553" d="M 449.441406 65.113281 C 450.292969 65.125 451.148438 65.136719 452.027344 65.148438 C 454.171875 65.300781 454.171875 65.300781 455.671875 66.050781 C 455.726562 69.539062 455.726562 73.011719 455.484375 76.496094 C 455.449219 77.042969 455.414062 77.59375 455.378906 78.15625 C 454.921875 79.542969 454.921875 79.542969 453.664062 80.464844 C 451.550781 81.164062 449.699219 81.222656 447.472656 81.273438 C 443.609375 81.492188 443.609375 81.492188 440.539062 83.617188 C 438.808594 86.066406 438.339844 87.289062 438.277344 90.234375 C 438.265625 90.894531 438.25 91.554688 438.234375 92.234375 C 438.214844 93.304688 438.214844 93.304688 438.195312 94.394531 C 438.179688 95.125 438.164062 95.855469 438.148438 96.605469 C 438.097656 98.945312 438.054688 101.28125 438.011719 103.617188 C 437.980469 105.199219 437.945312 106.78125 437.914062 108.363281 C 437.832031 112.246094 437.757812 116.128906 437.683594 120.011719 C 432.242188 120.011719 426.800781 120.011719 421.195312 120.011719 C 421.195312 102.203125 421.195312 84.398438 421.195312 66.050781 C 425.648438 66.050781 430.097656 66.050781 434.6875 66.050781 C 435.425781 68.03125 436.167969 70.007812 436.933594 72.046875 C 437.476562 71.351562 438.015625 70.65625 438.574219 69.9375 C 441.589844 66.058594 444.585938 65.003906 449.441406 65.113281 Z M 449.441406 65.113281 " fill-opacity="1" fill-rule="nonzero"/><path fill="#e84553" d="M 493.894531 169.476562 C 509.203125 168.957031 509.203125 168.957031 514.917969 173.769531 C 520.164062 179.222656 521.222656 185.410156 521.09375 192.757812 C 521.089844 193.371094 521.089844 193.984375 521.085938 194.613281 C 521.074219 196.867188 521.042969 199.121094 521.015625 201.375 C 520.96875 206.429688 520.921875 211.484375 520.875 216.691406 C 507.023438 216.691406 493.171875 216.691406 478.902344 216.691406 C 478.902344 212.488281 478.902344 208.28125 478.902344 203.953125 C 488.796875 203.953125 498.6875 203.953125 508.882812 203.953125 C 508.988281 193.570312 508.988281 193.570312 505.132812 184.136719 C 502.699219 182.234375 500.972656 182.042969 497.921875 181.796875 C 496.59375 181.6875 495.261719 181.578125 493.894531 181.46875 C 493.894531 177.511719 493.894531 173.554688 493.894531 169.476562 Z M 493.894531 169.476562 " fill-opacity="1" fill-rule="nonzero"/><path fill="#e84553" d="M 540.359375 169.476562 C 544.316406 169.476562 548.273438 169.476562 552.351562 169.476562 C 552.402344 176.101562 552.441406 182.726562 552.46875 189.355469 C 552.480469 192.429688 552.496094 195.507812 552.519531 198.585938 C 552.542969 201.558594 552.558594 204.535156 552.5625 207.507812 C 552.566406 208.636719 552.574219 209.769531 552.589844 210.898438 C 552.660156 217.894531 552.566406 224.027344 548.742188 230.089844 C 544.382812 234.324219 539.515625 234.757812 533.75 234.777344 C 532.121094 234.679688 530.6875 234.378906 529.117188 233.929688 C 528.375 229.652344 528.289062 225.523438 528.367188 221.1875 C 529 221.207031 529.632812 221.222656 530.28125 221.242188 C 531.105469 221.253906 531.925781 221.269531 532.769531 221.28125 C 533.589844 221.300781 534.40625 221.316406 535.246094 221.335938 C 537.464844 221.414062 537.464844 221.414062 538.859375 219.691406 C 539.632812 216.878906 539.722656 214.15625 539.765625 211.25 C 539.777344 210.320312 539.792969 209.390625 539.808594 208.433594 C 539.820312 207.425781 539.835938 206.417969 539.847656 205.410156 C 539.863281 204.375 539.878906 203.339844 539.894531 202.304688 C 539.933594 199.582031 539.972656 196.863281 540.007812 194.144531 C 540.046875 191.367188 540.089844 188.589844 540.128906 185.808594 C 540.210938 180.367188 540.285156 174.921875 540.359375 169.476562 Z M 540.359375 169.476562 " fill-opacity="1" fill-rule="nonzero"/><path fill="#e84553" d="M 457.917969 169.476562 C 461.875 169.476562 465.832031 169.476562 469.910156 169.476562 C 469.960938 176.101562 470.003906 182.726562 470.027344 189.355469 C 470.039062 192.429688 470.054688 195.507812 470.078125 198.585938 C 470.105469 201.558594 470.117188 204.535156 470.125 207.507812 C 470.128906 208.636719 470.136719 209.769531 470.148438 210.898438 C 470.21875 217.894531 470.125 224.027344 466.304688 230.089844 C 461.945312 234.324219 457.078125 234.757812 451.3125 234.777344 C 449.679688 234.679688 448.246094 234.378906 446.675781 233.929688 C 445.933594 229.652344 445.847656 225.523438 445.925781 221.1875 C 446.558594 221.207031 447.191406 221.222656 447.84375 221.242188 C 448.664062 221.253906 449.484375 221.269531 450.332031 221.28125 C 451.148438 221.300781 451.964844 221.316406 452.808594 221.335938 C 455.023438 221.414062 455.023438 221.414062 456.421875 219.691406 C 457.191406 216.878906 457.28125 214.15625 457.324219 211.25 C 457.339844 210.320312 457.351562 209.390625 457.367188 208.433594 C 457.382812 207.425781 457.394531 206.417969 457.40625 205.410156 C 457.421875 204.375 457.4375 203.339844 457.453125 202.304688 C 457.496094 199.582031 457.53125 196.863281 457.566406 194.144531 C 457.605469 191.367188 457.648438 188.589844 457.6875 185.808594 C 457.769531 180.367188 457.84375 174.921875 457.917969 169.476562 Z M 457.917969 169.476562 " fill-opacity="1" fill-rule="nonzero"/><path fill="#e84553" d="M 423.445312 148.492188 C 427.648438 148.492188 431.851562 148.492188 436.183594 148.492188 C 436.183594 170.996094 436.183594 193.503906 436.183594 216.691406 C 431.980469 216.691406 427.777344 216.691406 423.445312 216.691406 C 423.445312 194.1875 423.445312 171.679688 423.445312 148.492188 Z M 423.445312 148.492188 " fill-opacity="1" fill-rule="nonzero"/><path fill="#e84553" d="M 624.296875 158.984375 C 628.253906 158.984375 632.210938 158.984375 636.289062 158.984375 C 636.289062 178.027344 636.289062 197.070312 636.289062 216.691406 C 632.332031 216.691406 628.375 216.691406 624.296875 216.691406 C 624.296875 197.648438 624.296875 178.605469 624.296875 158.984375 Z M 624.296875 158.984375 " fill-opacity="1" fill-rule="nonzero"/><path fill="#ffffff" d="M 237.757812 231.527344 C 240.570312 233.457031 242.246094 236.09375 243.574219 239.175781 C 244.3125 244.234375 243.566406 248.492188 240.574219 252.664062 C 236.59375 256.457031 233.15625 256.6875 227.84375 256.617188 C 223.984375 256.269531 221.894531 255.066406 219.191406 252.199219 C 216.429688 248.511719 216.070312 245.039062 216.277344 240.503906 C 216.855469 236.703125 218.679688 234.769531 221.417969 232.242188 C 226.855469 228.53125 232.066406 228.367188 237.757812 231.527344 Z M 237.757812 231.527344 " fill-opacity="1" fill-rule="nonzero"/><path fill="#ffffff" d="M 179.300781 231.527344 C 182.113281 233.457031 183.789062 236.09375 185.117188 239.175781 C 185.855469 244.234375 185.105469 248.492188 182.117188 252.664062 C 178.132812 256.457031 174.699219 256.6875 169.386719 256.617188 C 165.527344 256.269531 163.410156 255.070312 160.734375 252.171875 C 158.160156 248.683594 157.566406 245.484375 157.765625 241.191406 C 158.539062 236.992188 161.007812 233.753906 164.132812 230.933594 C 169.539062 228.542969 174.222656 228.707031 179.300781 231.527344 Z M 179.300781 231.527344 " fill-opacity="1" fill-rule="nonzero"/><path fill="#e84553" d="M 632.777344 140.902344 C 633.578125 140.917969 634.378906 140.929688 635.203125 140.945312 C 635.808594 140.960938 636.414062 140.980469 637.039062 140.996094 C 637.039062 142.480469 637.039062 143.964844 637.039062 145.492188 C 636.570312 145.523438 636.101562 145.550781 635.617188 145.578125 C 634.699219 145.652344 634.699219 145.652344 633.761719 145.726562 C 633.152344 145.769531 632.542969 145.816406 631.917969 145.859375 C 630.011719 146.117188 630.011719 146.117188 628.796875 148.492188 C 632.257812 148.492188 635.71875 148.492188 639.289062 148.492188 C 639.289062 150.964844 639.289062 153.4375 639.289062 155.984375 C 633.351562 155.984375 627.417969 155.984375 621.300781 155.984375 C 621.300781 145.574219 621.300781 145.574219 624.296875 142.496094 C 627.199219 141.027344 629.550781 140.832031 632.777344 140.902344 Z M 632.777344 140.902344 " fill-opacity="1" fill-rule="nonzero"/><path fill="#e84553" d="M 388.96875 155.238281 C 390.890625 156.78125 390.890625 156.78125 391.964844 158.984375 C 392.167969 161.148438 391.972656 162.9375 391.21875 164.980469 C 389.101562 166.972656 387.730469 167.199219 384.847656 167.507812 C 381.964844 167.199219 380.59375 166.972656 378.476562 164.980469 C 377.722656 162.941406 377.503906 161.144531 377.726562 158.984375 C 380.488281 154.351562 383.929688 153.789062 388.96875 155.238281 Z M 388.96875 155.238281 " fill-opacity="1" fill-rule="nonzero"/><path fill="#e84553" d="M 367.984375 154.675781 C 368.492188 154.722656 369.003906 154.773438 369.53125 154.828125 C 371.371094 155.347656 372.09375 155.949219 373.230469 157.484375 C 373.738281 159.785156 373.664062 161.917969 373.230469 164.230469 C 371.644531 166.261719 370.554688 167.003906 368.03125 167.53125 C 365.050781 167.757812 363.753906 167.410156 361.238281 165.683594 C 359.359375 162.921875 359.203125 161.511719 359.738281 158.234375 C 362.050781 155.203125 364.230469 154.246094 367.984375 154.675781 Z M 367.984375 154.675781 " fill-opacity="1" fill-rule="nonzero"/></svg>