<?xml version="1.0" encoding="UTF-8"?>
<svg version="1.1" xmlns="http://www.w3.org/2000/svg" width="922" height="364">
<path d="M0 0 C2.22467032 0.01602753 4.44750466 0.0000819 6.67211914 -0.01904297 C20.04204054 -0.03957256 33.31601603 1.61666589 45.98657227 6.07861328 C46.72206299 6.3313501 47.45755371 6.58408691 48.21533203 6.84448242 C81.22780328 18.61014839 109.73489276 42.98703045 125.01831055 74.65869141 C133.83476172 93.72765122 138.36082365 112.82546889 138.29907227 133.89111328 C138.29825653 134.94276169 138.29825653 134.94276169 138.29742432 136.01565552 C138.25543115 147.83404329 137.26962045 159.01268495 133.92407227 170.39111328 C133.6026123 171.48866943 133.6026123 171.48866943 133.2746582 172.60839844 C126.82251779 193.84786794 115.62668951 211.88681374 100.92407227 228.39111328 C100.32981445 229.05884766 99.73555664 229.72658203 99.12329102 230.41455078 C77.46217049 253.31191392 43.79087356 267.7838335 12.49047852 268.72705078 C9.82095804 268.75737683 7.15581736 268.77431269 4.48657227 268.76611328 C3.43634384 268.76479904 3.43634384 268.76479904 2.36489868 268.76345825 C-35.9899444 268.6058752 -66.6560129 253.40587116 -93.66577148 226.84423828 C-103.76452677 216.3147304 -111.08731152 203.9432656 -117.45092773 190.89111328 C-117.84344727 190.09850098 -118.2359668 189.30588867 -118.64038086 188.48925781 C-125.71174091 173.4279837 -128.53225581 156.98595567 -131.55541992 140.75415039 C-136.87092671 112.40028836 -145.56580009 87.66335088 -170.07592773 70.39111328 C-183.90218959 61.00334568 -200.04998114 55.58524485 -216.57128906 53.36450195 C-222.70869668 52.50871278 -227.45555769 50.73675029 -231.38842773 45.82861328 C-231.87956055 45.22919922 -232.37069336 44.62978516 -232.87670898 44.01220703 C-236.5981947 38.98153415 -235.62753562 32.34976123 -235.07592773 26.39111328 C-233.48183701 21.07996053 -231.31038157 17.89730803 -226.47045898 15.18408203 C-221.88323433 13.04470167 -217.77330664 12.73826469 -212.76342773 12.82861328 C-211.8975 12.83812012 -211.03157227 12.84762695 -210.1394043 12.85742188 C-200.68277651 13.15412057 -192.01514454 15.43752388 -183.07592773 18.39111328 C-182.38015625 18.61573242 -181.68438477 18.84035156 -180.9675293 19.07177734 C-164.72406052 24.41369359 -150.12432385 32.35278341 -137.07592773 43.39111328 C-136.10913086 44.20580078 -135.14233398 45.02048828 -134.14624023 45.85986328 C-127.70135584 51.50136874 -122.2483615 57.57535421 -117.07592773 64.39111328 C-116.66987305 64.91688965 -116.26381836 65.44266602 -115.84545898 65.984375 C-98.66797134 88.34814256 -92.67394227 111.76832798 -89.07592773 139.39111328 C-85.51470202 166.05878924 -76.73671518 189.99571701 -54.77124023 207.19580078 C-52.25107449 209.00742153 -49.68613567 210.71203215 -47.07592773 212.39111328 C-46.19420898 212.97892578 -45.31249023 213.56673828 -44.40405273 214.17236328 C-23.38645532 227.40996607 1.91010665 230.2220946 25.8840332 224.88720703 C48.93531381 219.28162994 69.4362158 205.28668646 82.28881836 185.26513672 C96.11071846 162.42465682 100.04766253 137.35610033 93.92407227 111.39111328 C88.05636506 88.35240242 74.24723384 68.06764187 53.92407227 55.39111328 C43.17542624 49.24802073 32.05072039 44.86470817 19.92407227 42.39111328 C19.21766602 42.24158203 18.51125977 42.09205078 17.78344727 41.93798828 C15.81539267 41.61283143 13.91806244 41.47811111 11.92407227 41.39111328 C10.82450195 41.32794922 9.72493164 41.26478516 8.59204102 41.19970703 C-17.35261713 40.39782826 -41.77393123 49.23358008 -60.74389648 67.03955078 C-64.68444685 71.01310409 -68.41724634 75.15800123 -72.07592773 79.39111328 C-75.07592773 78.39111328 -75.07592773 78.39111328 -76.33105469 76.26489258 C-76.73799561 75.3410376 -77.14493652 74.41718262 -77.56420898 73.46533203 C-78.02085937 72.44600586 -78.47750977 71.42667969 -78.94799805 70.37646484 C-79.66101074 68.74402832 -79.66101074 68.74402832 -80.38842773 67.07861328 C-81.36702104 64.87855937 -82.34747075 62.67933019 -83.32983398 60.48095703 C-83.80050293 59.42505371 -84.27117187 58.36915039 -84.75610352 57.28125 C-86.7385464 52.94011813 -88.9430365 48.74196003 -91.24780273 44.56298828 C-92.23815217 41.96565674 -92.15398914 40.92926757 -91.07592773 38.39111328 C-75.84606754 17.16652088 -43.18497256 5.99468457 -18.91552734 0.9777832 C-12.61143391 0.01455204 -6.36690344 -0.05426931 0 0 Z " fill="#E84553" transform="translate(263.075927734375,35.60888671875)"/>
<path d="M0 0 C9.81562674 7.75867555 15.86660231 17.27448629 18.125 29.6796875 C19.52391116 42.67803351 17.6894647 54.73352197 9.87890625 65.51953125 C1.95429802 75.27968348 -6.32799596 81.39090566 -18.875 83.6796875 C-29.2621363 84.7042805 -39.46375029 84.54547138 -48.875 79.6796875 C-49.72191406 79.27878906 -50.56882813 78.87789063 -51.44140625 78.46484375 C-62.68853128 72.54078553 -68.94721844 62.48056692 -72.875 50.6796875 C-76.23242661 38.7366028 -74.37785941 25.15983598 -68.63671875 14.34765625 C-67.46154695 12.38661105 -66.21103449 10.53359855 -64.875 8.6796875 C-64.318125 7.8340625 -63.76125 6.9884375 -63.1875 6.1171875 C-46.68890321 -11.27322533 -19.38365709 -13.9146967 0 0 Z " fill="#003049" transform="translate(294.875,132.3203125)"/>
<path d="M0 0 C10.91986432 7.51235949 18.57233528 18.85468542 21.625 31.8125 C24.06874752 48.40283036 21.35011299 63.64260853 11.40625 77.25 C3.79445064 86.48398611 -6.83997153 93.18134344 -18.8125 94.8125 C-30.89282821 95.80010465 -43.76659769 96.449598 -54.8125 90.8125 C-55.67488281 90.38839844 -56.53726562 89.96429688 -57.42578125 89.52734375 C-69.76880651 82.80329812 -77.90325797 72.44690313 -82.0234375 59.1484375 C-85.25109746 45.50278601 -84.53914773 30.32573599 -77.8125 17.8125 C-75.68939269 14.60671359 -73.34225414 11.70441979 -70.8125 8.8125 C-70.31234375 8.19503906 -69.8121875 7.57757813 -69.296875 6.94140625 C-52.78862592 -11.77628021 -20.24161567 -11.82594394 0 0 Z M-52.25 21.625 C-58.07091297 30.35636946 -60.01724182 40.32880719 -58.3515625 50.67578125 C-56.44886767 59.4841391 -53.40598049 66.79205119 -45.625 71.8125 C-38.63569531 75.78275592 -30.65210135 75.69695788 -22.8125 74.8125 C-15.91322513 72.8525786 -10.6002984 68.90809611 -6.8125 62.8125 C-1.94935574 52.58840932 -1.13800786 41.31047359 -4.375 30.4375 C-7.07266532 23.36320284 -11.04470789 17.99785139 -17.75 14.3125 C-29.5394399 9.81071045 -44.09285439 11.5625357 -52.25 21.625 Z " fill="#E84553" transform="translate(530.8125,65.1875)"/>
<path d="M0 0 C7.59 0 15.18 0 23 0 C23 33.99 23 67.98 23 103 C8 103 8 103 3 100 C2.1875 97.3125 2.1875 97.3125 2 95 C1.40832031 95.40992188 0.81664062 95.81984375 0.20703125 96.2421875 C-0.58316406 96.78101563 -1.37335937 97.31984375 -2.1875 97.875 C-2.96480469 98.40867187 -3.74210938 98.94234375 -4.54296875 99.4921875 C-11.68757274 103.87663447 -18.86966723 103.67536311 -27 103 C-33.65825398 101.36391271 -38.31300555 96.61471237 -42 91 C-47.84893067 78.6640735 -48.71119396 65.0004775 -45.0390625 51.890625 C-41.73432132 42.69698413 -36.51289083 35.78981643 -27.7734375 31.3671875 C-23.91809688 29.78167548 -20.19695852 29.51864364 -16.0625 29.5625 C-15.06573242 29.5325293 -15.06573242 29.5325293 -14.04882812 29.50195312 C-7.96700621 29.50785208 -6.04300484 30.97849758 0 34 C0 22.78 0 11.56 0 0 Z M-21 52 C-25.29912455 59.98408845 -24.56999534 69.37367138 -22.6328125 77.921875 C-21.41966218 81.90580073 -20.54523589 83.6365094 -17 86 C-14.72924119 86.42984934 -14.72924119 86.42984934 -12.25 86.4375 C-11.43015625 86.47746094 -10.6103125 86.51742187 -9.765625 86.55859375 C-5.50950931 85.69895456 -2.5574255 84.65627824 0 81 C0.87653394 76.65793542 0.92388087 72.44542688 0.80273438 68.02514648 C0.75001955 65.93827385 0.76158387 63.85879785 0.78125 61.77148438 C1.11671005 54.49859124 1.11671005 54.49859124 -2.3918457 48.61181641 C-9.22652198 44.38804661 -15.93891513 46.30627952 -21 52 Z " fill="#E84553" transform="translate(657,57)"/>
<path d="M0 0 C1.35154746 0.01508568 2.70311135 0.02876717 4.0546875 0.04101562 C7.32855371 0.07609276 10.6015568 0.12524903 13.875 0.1875 C13.92156492 8.09857383 13.95699091 16.00958935 13.97862434 23.92076683 C13.98901301 27.59517674 14.00308106 31.26949213 14.02587891 34.94384766 C14.04778437 38.49705546 14.05960549 42.05017297 14.06475449 45.60344315 C14.07018867 47.6028771 14.08577258 49.6022753 14.10159302 51.60165405 C14.10284325 61.86861758 13.97025486 72.10179078 6.875 80.1875 C-0.35160701 86.38849684 -8.93771713 87.6012714 -18.1953125 87.45703125 C-23.34750818 86.98302925 -28.15302398 85.59135205 -33.125 84.1875 C-33.455 78.9075 -33.785 73.6275 -34.125 68.1875 C-32.97 68.3525 -31.815 68.5175 -30.625 68.6875 C-26.02138066 69.1867761 -21.43920012 69.36612622 -16.8125 69.4375 C-16.11898437 69.45876953 -15.42546875 69.48003906 -14.7109375 69.50195312 C-11.58627022 69.52318873 -9.421057 69.34601871 -6.64453125 67.859375 C-4.78870664 66.19402996 -4.78870664 66.19402996 -5.125 63.1875 C-6.17558594 63.08953125 -7.22617187 62.9915625 -8.30859375 62.890625 C-20.27685191 61.6655614 -29.77643961 59.55240687 -38.125 50.1875 C-43.9078411 42.72033625 -44.24725476 34.23130864 -43.42041016 25.14648438 C-42.24494498 17.35149876 -37.54919936 11.49076992 -31.3828125 6.88671875 C-21.52189839 0.17416879 -11.65824414 -0.22553151 0 0 Z M-22.9375 21.5625 C-26.31024591 25.60979509 -27.14684877 27.8110272 -27.0625 33.125 C-26.3298271 37.5884096 -24.4467659 40.08237101 -21.125 43.1875 C-14.66440244 47.06385854 -11.48023273 46.1875 -3.125 46.1875 C-3.125 36.2875 -3.125 26.3875 -3.125 16.1875 C-14.23872562 16.04976723 -14.23872562 16.04976723 -22.9375 21.5625 Z " fill="#E84553" transform="translate(795.125,225.8125)"/>
<path d="M0 0 C7.02187085 5.70078267 10.67743824 12.12014252 11.72262573 21.22412109 C12.07622272 25.6111405 12.03134018 29.99602634 12.0078125 34.39453125 C12.00639755 35.40422974 12.0049826 36.41392822 12.00352478 37.45422363 C11.99796406 40.65310736 11.98541895 43.85191897 11.97265625 47.05078125 C11.96763617 49.23046773 11.96307415 51.41015532 11.95898438 53.58984375 C11.94800753 58.91018051 11.93130893 64.23047573 11.91015625 69.55078125 C10.15108211 69.5694207 8.39195077 69.58271328 6.6328125 69.59375 C5.1634021 69.60571411 5.1634021 69.60571411 3.66430664 69.61791992 C0.33029717 69.53664587 -2.13904597 69.13967236 -5.08984375 67.55078125 C-6.2421875 64.96875 -6.2421875 64.96875 -7.08984375 62.55078125 C-7.89164063 63.05609375 -8.6934375 63.56140625 -9.51953125 64.08203125 C-16.62842972 68.14425895 -22.33071172 70.22341373 -30.58984375 70.17578125 C-31.34249512 70.17384766 -32.09514648 70.17191406 -32.87060547 70.16992188 C-38.45047623 69.96570433 -42.73817339 68.72003693 -46.953125 64.83203125 C-47.43136719 64.24421875 -47.90960937 63.65640625 -48.40234375 63.05078125 C-48.89347656 62.46296875 -49.38460937 61.87515625 -49.890625 61.26953125 C-53.11717797 56.64515566 -52.59089079 50.92966864 -52.08984375 45.55078125 C-50.56446406 39.5111022 -47.085624 36.01762042 -41.82421875 32.87109375 C-31.37949058 27.82778215 -21.45076659 26.97796161 -10.08984375 27.55078125 C-10.53979132 25.75699027 -11.00008518 23.96579197 -11.46484375 22.17578125 C-11.72007812 21.17804688 -11.9753125 20.1803125 -12.23828125 19.15234375 C-12.91388694 16.4253711 -12.91388694 16.4253711 -15.08984375 14.55078125 C-21.85341606 13.55647831 -27.06189115 14.64082354 -33.09375 17.640625 C-35.99137711 18.96185223 -37.97233981 19.18845251 -41.08984375 18.55078125 C-44.6047262 15.68983042 -47.02296136 12.57576275 -49.08984375 8.55078125 C-49.08984375 7.89078125 -49.08984375 7.23078125 -49.08984375 6.55078125 C-36.38469606 -3.47324212 -14.77828903 -9.25272065 0 0 Z M-30.08984375 45.42578125 C-31.40959542 48.23025356 -31.08050903 49.65499043 -30.08984375 52.55078125 C-27.65076631 54.98985869 -26.83115433 54.89969413 -23.46484375 54.98828125 C-18.76963103 54.86544138 -15.38835938 53.94969974 -11.51953125 51.26171875 C-9.65128258 49.02594575 -9.59894257 47.62260757 -9.58984375 44.73828125 C-9.71773194 43.33836229 -9.87199806 41.93954751 -10.08984375 40.55078125 C-17.77672137 40.17547258 -24.16716999 39.8732746 -30.08984375 45.42578125 Z " fill="#E84553" transform="translate(793.08984375,90.44921875)"/>
<path d="M0 0 C1.38296383 0.01143555 2.76581807 0.03739992 4.1484375 0.0703125 C7.7990625 0.1321875 7.7990625 0.1321875 11.5234375 0.1953125 C11.5234375 7.1253125 11.5234375 14.0553125 11.5234375 21.1953125 C17.1334375 21.1953125 22.7434375 21.1953125 28.5234375 21.1953125 C28.5234375 26.4753125 28.5234375 31.7553125 28.5234375 37.1953125 C22.9134375 37.1953125 17.3034375 37.1953125 11.5234375 37.1953125 C11.64307289 42.44654235 11.76560297 47.69753109 11.89575195 52.94848633 C11.9391645 54.7362052 11.98083479 56.52396724 12.02075195 58.31176758 C12.0783021 60.87594641 12.14203953 63.43990662 12.20703125 66.00390625 C12.22374374 66.8080748 12.24045624 67.61224335 12.25767517 68.44078064 C12.01564446 72.12201248 12.01564446 72.12201248 13.5234375 75.1953125 C14.19632813 75.11152344 14.86921875 75.02773437 15.5625 74.94140625 C18.47458334 74.59389177 20.65492518 74.53399615 23.5234375 75.1953125 C26.6556109 78.08863732 28.87290124 81.26262682 30.5234375 85.1953125 C30.44921875 87.3828125 30.44921875 87.3828125 29.5234375 89.1953125 C22.04724014 94.80246052 11.32784233 94.03216682 2.5234375 93.1953125 C-2.71825682 91.97984715 -5.43280434 89.67541913 -8.4140625 85.2578125 C-11.78764007 79.50557684 -11.61461533 73.65070264 -11.57421875 67.17578125 C-11.5728038 66.31721024 -11.57138885 65.45863922 -11.56993103 64.5740509 C-11.56435307 61.84360201 -11.55180464 59.11323643 -11.5390625 56.3828125 C-11.53404465 54.5266939 -11.52948224 52.670574 -11.52539062 50.81445312 C-11.51439086 46.2747077 -11.49714143 41.7350242 -11.4765625 37.1953125 C-12.88856934 37.23072144 -12.88856934 37.23072144 -14.32910156 37.2668457 C-17.4765625 37.1953125 -17.4765625 37.1953125 -19.8359375 36.05078125 C-22.10187542 33.48811337 -21.88502592 31.87516016 -21.7265625 28.5078125 C-21.69046875 27.51394531 -21.654375 26.52007812 -21.6171875 25.49609375 C-21.57078125 24.73683594 -21.524375 23.97757813 -21.4765625 23.1953125 C-17.29918776 21.60393165 -13.94495465 20.98253192 -9.4765625 21.1953125 C-9.3734375 20.1021875 -9.2703125 19.0090625 -9.1640625 17.8828125 C-6.97377283 0.39178499 -6.97377283 0.39178499 0 0 Z " fill="#E84553" transform="translate(831.4765625,66.8046875)"/>
<path d="M0 0 C5.28 0 10.56 0 16 0 C16 20.79 16 41.58 16 63 C8.245 63.04125 0.49 63.0825 -7.5 63.125 C-9.91248047 63.14320801 -12.32496094 63.16141602 -14.81054688 63.18017578 C-50.04546473 63.3372713 -50.04546473 63.3372713 -61.0546875 54.31640625 C-67.94565637 47.439734 -69.14194172 38.32989493 -69.29296875 28.921875 C-69.273372 26.53107183 -69.23810997 24.14034777 -69.1875 21.75 C-69.17396484 20.51636719 -69.16042969 19.28273437 -69.14648438 18.01171875 C-69.11155298 15.00761876 -69.05776438 12.0037477 -69 9 C-63.39 9 -57.78 9 -52 9 C-51.96261719 10.72347656 -51.92523438 12.44695312 -51.88671875 14.22265625 C-51.82104063 16.50262526 -51.75459393 18.78257222 -51.6875 21.0625 C-51.66494141 22.19623047 -51.64238281 23.32996094 -51.61914062 24.49804688 C-51.42050479 30.69187336 -51.10263543 35.57227525 -48 41 C-42.41750615 45.40723199 -35.99836728 45.17548233 -29.19921875 45.31640625 C-28.45724243 45.33505737 -27.71526611 45.3537085 -26.95080566 45.3729248 C-24.19648399 45.44088585 -21.44197905 45.50124865 -18.6875 45.5625 C-12.520625 45.706875 -6.35375 45.85125 0 46 C0 30.82 0 15.64 0 0 Z " fill="#E84553" transform="translate(527,226)"/>
<path d="M0 0 C1.13824219 0.01546875 2.27648437 0.0309375 3.44921875 0.046875 C6.3125 0.25 6.3125 0.25 8.3125 1.25 C8.38640791 5.90619822 8.38689826 10.54030638 8.0625 15.1875 C8.01609375 15.91839844 7.9696875 16.64929688 7.921875 17.40234375 C7.3125 19.25 7.3125 19.25 5.63671875 20.484375 C2.81458733 21.41401829 0.34268833 21.49139524 -2.625 21.5625 C-7.78283372 21.85080545 -7.78283372 21.85080545 -11.875 24.6875 C-14.18561472 27.95423116 -14.81424351 29.58717528 -14.89282227 33.51611328 C-14.91276749 34.39687531 -14.93271271 35.27763733 -14.95326233 36.18508911 C-14.97833107 37.61327469 -14.97833107 37.61327469 -15.00390625 39.0703125 C-15.02468735 40.04410858 -15.04546844 41.01790466 -15.06687927 42.02120972 C-15.13238598 45.13906647 -15.19126497 48.25700903 -15.25 51.375 C-15.29318415 53.48568604 -15.3367984 55.59636333 -15.38085938 57.70703125 C-15.48887977 62.88793407 -15.58794493 68.06889984 -15.6875 73.25 C-22.9475 73.25 -30.2075 73.25 -37.6875 73.25 C-37.6875 49.49 -37.6875 25.73 -37.6875 1.25 C-31.7475 1.25 -25.8075 1.25 -19.6875 1.25 C-18.6975 3.89 -17.7075 6.53 -16.6875 9.25 C-15.965625 8.321875 -15.24375 7.39375 -14.5 6.4375 C-10.47412002 1.2613686 -6.47929495 -0.14776043 0 0 Z " fill="#E84553" transform="translate(731.6875,86.75)"/>
<path d="M0 0 C1.13824219 0.01546875 2.27648437 0.0309375 3.44921875 0.046875 C6.3125 0.25 6.3125 0.25 8.3125 1.25 C8.38640791 5.90619822 8.38689826 10.54030638 8.0625 15.1875 C8.01609375 15.91839844 7.9696875 16.64929688 7.921875 17.40234375 C7.3125 19.25 7.3125 19.25 5.63671875 20.484375 C2.81458733 21.41401829 0.34268833 21.49139524 -2.625 21.5625 C-7.78283372 21.85080545 -7.78283372 21.85080545 -11.875 24.6875 C-14.18561472 27.95423116 -14.81424351 29.58717528 -14.89282227 33.51611328 C-14.91276749 34.39687531 -14.93271271 35.27763733 -14.95326233 36.18508911 C-14.97833107 37.61327469 -14.97833107 37.61327469 -15.00390625 39.0703125 C-15.02468735 40.04410858 -15.04546844 41.01790466 -15.06687927 42.02120972 C-15.13238598 45.13906647 -15.19126497 48.25700903 -15.25 51.375 C-15.29318415 53.48568604 -15.3367984 55.59636333 -15.38085938 57.70703125 C-15.48887977 62.88793407 -15.58794493 68.06889984 -15.6875 73.25 C-22.9475 73.25 -30.2075 73.25 -37.6875 73.25 C-37.6875 49.49 -37.6875 25.73 -37.6875 1.25 C-31.7475 1.25 -25.8075 1.25 -19.6875 1.25 C-18.6975 3.89 -17.7075 6.53 -16.6875 9.25 C-15.965625 8.321875 -15.24375 7.39375 -14.5 6.4375 C-10.47412002 1.2613686 -6.47929495 -0.14776043 0 0 Z " fill="#E84553" transform="translate(599.6875,86.75)"/>
<path d="M0 0 C20.42833499 -0.69248593 20.42833499 -0.69248593 28.0546875 5.73046875 C35.05235304 13.00397588 36.4678093 21.26019192 36.29296875 31.06640625 C36.28994751 31.88298706 36.28692627 32.69956787 36.28381348 33.54089355 C36.2682923 36.54822702 36.22641043 39.55537821 36.1875 42.5625 C36.125625 49.306875 36.06375 56.05125 36 63 C17.52 63 -0.96 63 -20 63 C-20 57.39 -20 51.78 -20 46 C-6.8 46 6.4 46 20 46 C20.13933013 32.14739537 20.13933013 32.14739537 15 19.5625 C11.74836426 17.02215958 9.4486853 16.76907904 5.375 16.4375 C3.60125 16.293125 1.8275 16.14875 0 16 C0 10.72 0 5.44 0 0 Z " fill="#E84553" transform="translate(659,226)"/>
<path d="M0 0 C5.28 0 10.56 0 16 0 C16.06798384 8.84103725 16.12293551 17.6818987 16.15543652 26.523139 C16.17104138 30.62921356 16.19218398 34.73509881 16.22631836 38.84106445 C16.25909794 42.80924381 16.27689189 46.77724196 16.28463173 50.74554634 C16.29014207 52.25369681 16.30090185 53.76183823 16.31719017 55.26991081 C16.41394328 64.60569577 16.28594629 72.78780933 11.1875 80.875 C5.37097386 86.52533968 -1.12344675 87.10614713 -8.81640625 87.1328125 C-10.99394865 87.00036806 -12.90667944 86.59809159 -15 86 C-15.99250545 80.29309366 -16.10477512 74.78591511 -16 69 C-15.15695312 69.02320313 -14.31390625 69.04640625 -13.4453125 69.0703125 C-12.34960938 69.08835937 -11.25390625 69.10640625 -10.125 69.125 C-9.03445313 69.14820313 -7.94390625 69.17140625 -6.8203125 69.1953125 C-3.8628949 69.30060534 -3.8628949 69.30060534 -2 67 C-0.97157249 63.24724831 -0.84994786 59.61777105 -0.79467773 55.7409668 C-0.77473251 54.50005783 -0.75478729 53.25914886 -0.73423767 51.9806366 C-0.71725743 50.63683189 -0.70037848 49.29302591 -0.68359375 47.94921875 C-0.66300474 46.56630357 -0.64200777 45.1833944 -0.62062073 43.80049133 C-0.56560101 40.17232151 -0.5161037 36.54409679 -0.46777344 32.91583252 C-0.41741102 29.208813 -0.36180213 25.50187254 -0.30664062 21.79492188 C-0.19930513 14.53001319 -0.0982915 7.2650377 0 0 Z " fill="#E84553" transform="translate(721,226)"/>
<path d="M0 0 C5.28 0 10.56 0 16 0 C16.06798384 8.84103725 16.12293551 17.6818987 16.15543652 26.523139 C16.17104138 30.62921356 16.19218398 34.73509881 16.22631836 38.84106445 C16.25909794 42.80924381 16.27689189 46.77724196 16.28463173 50.74554634 C16.29014207 52.25369681 16.30090185 53.76183823 16.31719017 55.26991081 C16.41394328 64.60569577 16.28594629 72.78780933 11.1875 80.875 C5.37097386 86.52533968 -1.12344675 87.10614713 -8.81640625 87.1328125 C-10.99394865 87.00036806 -12.90667944 86.59809159 -15 86 C-15.99250545 80.29309366 -16.10477512 74.78591511 -16 69 C-15.15695312 69.02320313 -14.31390625 69.04640625 -13.4453125 69.0703125 C-12.34960938 69.08835937 -11.25390625 69.10640625 -10.125 69.125 C-9.03445313 69.14820313 -7.94390625 69.17140625 -6.8203125 69.1953125 C-3.8628949 69.30060534 -3.8628949 69.30060534 -2 67 C-0.97157249 63.24724831 -0.84994786 59.61777105 -0.79467773 55.7409668 C-0.77473251 54.50005783 -0.75478729 53.25914886 -0.73423767 51.9806366 C-0.71725743 50.63683189 -0.70037848 49.29302591 -0.68359375 47.94921875 C-0.66300474 46.56630357 -0.64200777 45.1833944 -0.62062073 43.80049133 C-0.56560101 40.17232151 -0.5161037 36.54409679 -0.46777344 32.91583252 C-0.41741102 29.208813 -0.36180213 25.50187254 -0.30664062 21.79492188 C-0.19930513 14.53001319 -0.0982915 7.2650377 0 0 Z " fill="#E84553" transform="translate(611,226)"/>
<path d="M0 0 C5.61 0 11.22 0 17 0 C17 30.03 17 60.06 17 91 C11.39 91 5.78 91 0 91 C0 60.97 0 30.94 0 0 Z " fill="#E84553" transform="translate(565,198)"/>
<path d="M0 0 C5.28 0 10.56 0 16 0 C16 25.41 16 50.82 16 77 C10.72 77 5.44 77 0 77 C0 51.59 0 26.18 0 0 Z " fill="#E84553" transform="translate(833,212)"/>
<path d="M0 0 C3.75172887 2.57618716 5.98606722 6.09297866 7.7578125 10.20703125 C8.74509806 16.95730925 7.7458622 22.63662635 3.7578125 28.20703125 C-1.55829089 33.26381252 -6.1414445 33.57062675 -13.23046875 33.4765625 C-18.38271377 33.01546664 -21.16881946 31.40734019 -24.7734375 27.58203125 C-28.46231503 22.66352788 -28.93832898 18.02956841 -28.6640625 11.98046875 C-27.8923344 6.90707103 -25.45920594 4.33043289 -21.8046875 0.95703125 C-14.54985479 -3.99748865 -7.59437129 -4.21413152 0 0 Z " fill="#003049" transform="translate(317.2421875,308.79296875)"/>
<path d="M0 0 C3.75172887 2.57618716 5.98606722 6.09297866 7.7578125 10.20703125 C8.74509806 16.95730925 7.7458622 22.63662635 3.7578125 28.20703125 C-1.55829089 33.26381252 -6.1414445 33.57062675 -13.23046875 33.4765625 C-18.38156366 33.01556957 -21.2053802 31.41530447 -24.7734375 27.546875 C-28.21207784 22.89515877 -29.00084121 18.62311222 -28.73828125 12.89453125 C-27.70445955 7.29398534 -24.40868805 2.97207211 -20.2421875 -0.79296875 C-13.02755132 -3.98083125 -6.77589115 -3.75995529 0 0 Z " fill="#003049" transform="translate(239.2421875,308.79296875)"/>
<path d="M0 0 C1.06863281 0.01804688 2.13726563 0.03609375 3.23828125 0.0546875 C4.04652344 0.07789063 4.85476563 0.10109375 5.6875 0.125 C5.6875 2.105 5.6875 4.085 5.6875 6.125 C5.06101562 6.16238281 4.43453125 6.19976562 3.7890625 6.23828125 C2.56316406 6.33689453 2.56316406 6.33689453 1.3125 6.4375 C0.50039063 6.49550781 -0.31171875 6.55351562 -1.1484375 6.61328125 C-3.69171338 6.95490528 -3.69171338 6.95490528 -5.3125 10.125 C-0.6925 10.125 3.9275 10.125 8.6875 10.125 C8.6875 13.425 8.6875 16.725 8.6875 20.125 C0.7675 20.125 -7.1525 20.125 -15.3125 20.125 C-15.3125 6.23310811 -15.3125 6.23310811 -11.3125 2.125 C-7.44313421 0.16344651 -4.3058491 -0.09463405 0 0 Z " fill="#E84553" transform="translate(844.3125,187.875)"/>
<path d="M0 0 C2.5625 2.0625 2.5625 2.0625 4 5 C4.27019253 7.88768267 4.00798262 10.27667854 3 13 C0.17669558 15.65722769 -1.65435902 15.96296704 -5.5 16.375 C-9.34564098 15.96296704 -11.17669558 15.65722769 -14 13 C-15.00642554 10.28088539 -15.29788378 7.88329014 -15 5 C-11.31685291 -1.18242547 -6.72269966 -1.93041376 0 0 Z " fill="#E84553" transform="translate(519,207)"/>
<path d="M0 0 C0.680625 0.06703125 1.36125 0.1340625 2.0625 0.203125 C4.52135899 0.89715778 5.48277869 1.7008261 7 3.75 C7.67834939 6.81953098 7.57893762 9.66604384 7 12.75 C4.88335562 15.46195062 3.43033781 16.45009046 0.0625 17.15625 C-3.91111569 17.45728149 -5.64665885 16.99292204 -9 14.6875 C-11.50639423 11.00623347 -11.71525283 9.12098953 -11 4.75 C-7.91423589 0.70658495 -5.01049885 -0.56937487 0 0 Z " fill="#E84553" transform="translate(491,206.25)"/>
</svg>
